PathFileType	4	(X/Y/Z)	C:/Users/beibeiliu/ov580/test_trc/capture2\sequence.5_training_dense_left.trc
DataRate	CameraRate	NumFrames	NumMarkers	Units	OrigDataRate	OrigDataStartFrame	OrigNumFrames
120	120	12	19	mm	120	176	350
Frame#	Time	ThumbCMC			ThumbMCP			ThumbIP			ThumbTip			IndexMCP			IndexPIP			IndexTip			MiddleMCP			MiddlePIP			MiddleTip			RingMCP			RingPIP			RingTip			PinkyMCP			PinkyPIP			PinkyTip			BackHand1			BackHand2			BackHand3	
		X0	Y0	Z0	X1	Y1	Z1	X2	Y2	Z2	X3	Y3	Z3	X4	Y4	Z4	X5	Y5	Z5	X6	Y6	Z6	X7	Y7	Z7	X8	Y8	Z8	X9	Y9	Z9	X10	Y10	Z10	X11	Y11	Z11	X12	Y12	Z12	X13	Y13	Z13	X14	Y14	Z14	X15	Y15	Z15	X16	Y16	Z16	X17	Y17	Z17	X18	Y18	Z18	
175	1.45833	-149.869	98.82	-19.7713	-133.781	102.107	-53.7556	-135.029	103.92	-80.7219	-145.52	98.5471	-104.342	-185.964	132.151	-75.3959	-182.442	143.06	-97.078	-182.63	148.628	-124.01	-182.036	107.954	-91.2694	-154.939	94.7636	-98.457	-150.648	85.9117	-59.5317	-179.572	87.0096	-89.8269	-151.25	78.6592	-81.4412	-153.304	75.8244	-51.2029	-183.09	68.4364	-86.9871	-158.347	63.7759	-73.3839	-163.138	68.0748	-41.1723	-207.207	80.5338	-37.7256	-200.641	69.8606	-12.5991	-188.613	101.136	-15.2217	
176	1.46667	-149.528	100.024	-25.2501	-133.027	99.4846	-55.2923	-132.651	101.043	-81.9248	-145.413	94.7747	-104.449	-182.945	129.536	-78.9989	-177.815	135.022	-107.302	-174.687	138.845	-128.51	-180.238	105.376	-92.8449	-152.887	93.9693	-97.9308	-149.309	85.8147	-58.6855	-179.504	83.7453	-91.0268	-152.144	71.7095	-84.3148	-155.912	75.7373	-48.5285	-183.052	70.5203	-85.7653	-157.545	60.1213	-71.2705	-164.696	65.9034	-41.898	-208.77	79.3193	-40.8181	-202.267	68.4637	-13.953	-189.307	103.375	-19.4358	
177	1.475	-148.234	100.82	-23.5297	-133.412	98.2809	-56.2376	-133.556	99.5878	-81.0174	-150.115	91.3241	-105.169	-180.887	130.886	-83.4457	-175.424	132.115	-107.484	-167.797	134.491	-133.578	-181.668	103.356	-90.897	-151.457	88.2899	-95.5564	-151.805	82.0074	-61.2334	-178.16	84.9635	-91.544	-153.126	70.5565	-84.5444	-157.558	73.8718	-48.133	-187.562	63.8316	-85.7527	-159.183	57.3478	-73.5662	-167.023	64.3074	-41.1319	-210.625	79.3674	-44.4047	-202.877	64.1165	-12.575	-191.599	99.5801	-18.3975	
178	1.48333	-149.334	99.8186	-24.4245	-139.482	95.8917	-56.0109	-134.289	99.9034	-85.5674	-148.081	90.7527	-106.526	-180.838	128.027	-80.7225	-176.36	129.748	-107.758	-167.817	134.566	-134.647	-178.754	105.126	-94.3925	-151.176	89.0962	-94.6733	-152.157	82.5446	-60.202	-180.515	83.3648	-90.9398	-153.186	66.7633	-82.0572	-157.484	73.0551	-49.1946	-184.448	62.3398	-87.4357	-160.397	58.6094	-74.8757	-165.965	65.3463	-42.9347	-211.196	75.6596	-44.3061	-203.858	68.7402	-14.0939	-191.679	100.794	-18.4758	
179	1.49167	-149.809	97.8363	-22.7905	-135.916	96.0654	-52.7996	-137.581	97.6372	-83.8135	-149.262	89.7144	-102.483	-182.866	128.713	-84.6505	-176.448	134.59	-103.328	-174.984	133.228	-130.079	-181.587	104.682	-91.3868	-154.313	90.3186	-98.3174	-153.082	79.6385	-62.3009	-183.002	78.2825	-91.1374	-154.501	69.6798	-84.507	-159.21	71.0886	-49.0024	-184.146	61.6725	-87.4998	-159.15	58.632	-72.2002	-166.554	62.3359	-42.4882	-210.85	74.5431	-41.6084	-201.261	66.2501	-11.8655	-191.943	97.3653	-17.5714	
180	1.5	-151.521	98.3435	-24.6443	-135.851	97.0396	-53.5426	-137.103	100.401	-87.7343	-154.313	88.6947	-105.928	-187.766	126.405	-79.7243	-182.623	134.442	-106.73	-179.997	141.824	-129.369	-180.457	105.295	-93.8885	-152.889	89.7981	-96.4622	-152.848	81.1631	-60.9636	-180.856	79.5773	-94.1863	-154.816	72.181	-86.1329	-159.165	70.5814	-49.5896	-184.482	66.1764	-85.8809	-160.014	58.8562	-74.1341	-164.997	61.7845	-42.787	-210.365	80.254	-41.9111	-206.251	67.1122	-14.9254	-191.938	95.2583	-19.5532	
181	1.50833	-153.312	98.1546	-26.0951	-136.051	99.9385	-58.4196	-135.74	101.597	-84.6504	-153.114	91.922	-107.107	-189.557	132.039	-81.6034	-187.333	136.798	-101.799	-186.65	147.633	-129.264	-184.125	104.432	-92.957	-155.97	93.7933	-99.2566	-154.29	80.8864	-60.6348	-185.697	80.0345	-91.0471	-154.176	70.9667	-82.6168	-158.092	70.7987	-52.1046	-189.21	62.2537	-86.3775	-160.488	61.8871	-73.0396	-166.671	62.6172	-41.4062	-211.065	79.8173	-41.4607	-203.449	64.4207	-12.2854	-194.554	97.6812	-22.6906	
182	1.51667	-152.316	96.7594	-22.8535	-136.35	99.7313	-56.9045	-136.175	102.705	-86.2595	-149.887	95.2348	-106.061	-190.59	132.248	-76.5472	-189.954	140.575	-98.832	-194.005	150.268	-125.29	-184.455	107.535	-92.5687	-155.061	91.0998	-97.539	-152.708	81.4747	-65.7108	-180.938	86.3423	-91.6292	-155.274	72.8978	-83.5913	-161.099	71.0673	-48.6008	-186.831	66.2392	-87.123	-162.148	56.5533	-75.368	-169.14	63.1206	-42.0939	-211.143	77.893	-41.6311	-203.228	66.4213	-11.1274	-192.293	98.0634	-19.254	
183	1.525	-153.368	97.8457	-23.9012	-135.444	99.8483	-56.3025	-135.463	103.745	-84.1584	-153.971	94.0466	-103.749	-192.569	132.734	-77.3539	-191.024	146.739	-100.969	-195.77	153.671	-120.057	-187.483	106.937	-90.7741	-155.806	92.7912	-98.3695	-153.523	84.0229	-63.2083	-184.346	86.0597	-91.0944	-156.164	71.4762	-84.6653	-158.693	72.8914	-52.4064	-189.885	67.1081	-86.8995	-162.364	63.1465	-74.5359	-164.286	65.3225	-43.8527	-209.356	81.6327	-38.2692	-205.695	65.7589	-12.0648	-191.907	97.9604	-16.9545	
184	1.53333	-151.419	101.438	-25.7814	-134.551	100.064	-55.995	-136.646	102.353	-83.4075	-149.262	97.0456	-102.836	-189.956	134.556	-75.1792	-188.839	145.313	-96.4838	-195.946	152.632	-119.125	-183.739	108.878	-94.2882	-156.478	99.0718	-100.564	-150.605	86.2427	-65.6196	-182.92	87.0834	-93.9891	-156.566	76.2097	-86.4269	-159.581	73.8423	-50.818	-187.746	70.8483	-87.8588	-161.51	65.3786	-75.5676	-167.147	64.3263	-44.4155	-211.038	83.7465	-40.1264	-202.108	68.9725	-12.16	-191.425	102.134	-19.048	
185	1.54167	-149.78	100.152	-24.5281	-135.287	99.864	-56.5616	-135.928	104.084	-85.2979	-152.845	96.053	-103.467	-187.451	138.889	-76.3625	-186.637	147.369	-96.659	-190.302	154.878	-119.99	-181.895	115.839	-91.4783	-157.418	98.6637	-99.7912	-152.255	86.5213	-66.0885	-184.725	91.2951	-89.8286	-156.21	80.2229	-88.8703	-158.091	76.3946	-53.5761	-190.652	75.7685	-84.9067	-161.767	64.4711	-74.6973	-166.662	68.0844	-46.3517	-210.214	86.9347	-39.7545	-202.265	74.0461	-14.2745	-189.6	104.665	-18.592	
186	1.55	-147.49	102.473	-22.3789	-133.604	99.952	-55.9109	-130.798	103.632	-83.7892	-147.367	97.6275	-103.286	-183.812	138.348	-72.5449	-181.466	151.789	-100.904	-180.727	156.145	-121.326	-183.347	114.181	-88.5644	-153.464	100.463	-97.6318	-151.436	87.3796	-64.5028	-179.266	94.4992	-91.71	-154.593	77.8139	-86.0186	-159.835	75.1291	-50.8414	-186.764	73.4878	-88.5094	-161.49	67.9506	-77.3529	-166.504	72.9392	-44.5729	-211.058	83.5866	-40.2599	-204.957	74.6061	-13.4154	-187.867	104.912	-15.039	
